<svg xmlns="http://www.w3.org/2000/svg" xmlns:xlink="http://www.w3.org/1999/xlink" width="40" zoomAndPan="magnify" viewBox="0 0 30 30.000001" height="40" preserveAspectRatio="xMidYMid meet" version="1.0"><defs><clipPath id="42ce23fde6"><path d="M 5.582031 0 L 24.453125 0 L 24.453125 29.03125 L 5.582031 29.03125 Z M 5.582031 0 " clip-rule="nonzero"/></clipPath></defs><g clip-path="url(#42ce23fde6)"><path fill="#000000" d="M 22.179688 21.347656 L 22.179688 21.90625 C 22.179688 22.121094 22.007812 22.292969 21.792969 22.292969 C 21.574219 22.292969 21.402344 22.121094 21.402344 21.90625 L 21.402344 21.347656 L 21.398438 21.347656 L 21.398438 20.390625 L 22.804688 20.390625 L 22.804688 21.347656 Z M 8.148438 9.121094 C 8.148438 8.90625 8.300781 8.734375 8.488281 8.734375 C 8.675781 8.734375 8.828125 8.90625 8.828125 9.121094 L 8.828125 9.554688 C 8.828125 9.769531 8.675781 9.945312 8.488281 9.945312 C 8.300781 9.945312 8.148438 9.769531 8.148438 9.554688 Z M 8.148438 10.984375 C 8.148438 10.769531 8.300781 10.59375 8.488281 10.59375 C 8.675781 10.59375 8.828125 10.769531 8.828125 10.984375 L 8.828125 11.414062 C 8.828125 11.632812 8.675781 11.804688 8.488281 11.804688 C 8.300781 11.804688 8.148438 11.632812 8.148438 11.414062 Z M 8.148438 12.847656 C 8.148438 12.632812 8.300781 12.457031 8.488281 12.457031 C 8.675781 12.457031 8.828125 12.632812 8.828125 12.847656 L 8.828125 13.277344 C 8.828125 13.492188 8.675781 13.667969 8.488281 13.667969 C 8.300781 13.667969 8.148438 13.492188 8.148438 13.277344 Z M 10.238281 9.121094 C 10.238281 8.90625 10.390625 8.734375 10.578125 8.734375 C 10.765625 8.734375 10.917969 8.90625 10.917969 9.121094 L 10.917969 9.554688 C 10.917969 9.769531 10.765625 9.945312 10.578125 9.945312 C 10.390625 9.945312 10.238281 9.769531 10.238281 9.554688 Z M 10.238281 10.984375 C 10.238281 10.769531 10.390625 10.59375 10.578125 10.59375 C 10.765625 10.59375 10.917969 10.769531 10.917969 10.984375 L 10.917969 11.414062 C 10.917969 11.632812 10.765625 11.804688 10.578125 11.804688 C 10.390625 11.804688 10.238281 11.632812 10.238281 11.414062 Z M 10.238281 12.847656 C 10.238281 12.632812 10.390625 12.457031 10.578125 12.457031 C 10.765625 12.457031 10.917969 12.632812 10.917969 12.847656 L 10.917969 13.277344 C 10.917969 13.492188 10.765625 13.667969 10.578125 13.667969 C 10.390625 13.667969 10.238281 13.492188 10.238281 13.277344 Z M 12.328125 9.121094 C 12.328125 8.90625 12.476562 8.734375 12.664062 8.734375 C 12.851562 8.734375 13.003906 8.90625 13.003906 9.121094 L 13.003906 9.554688 C 13.003906 9.769531 12.851562 9.945312 12.664062 9.945312 C 12.476562 9.945312 12.328125 9.769531 12.328125 9.554688 Z M 12.328125 10.984375 C 12.328125 10.769531 12.476562 10.59375 12.664062 10.59375 C 12.851562 10.59375 13.003906 10.769531 13.003906 10.984375 L 13.003906 11.414062 C 13.003906 11.632812 12.851562 11.804688 12.664062 11.804688 C 12.476562 11.804688 12.328125 11.632812 12.328125 11.414062 Z M 12.328125 12.847656 C 12.328125 12.632812 12.476562 12.457031 12.664062 12.457031 C 12.851562 12.457031 13.003906 12.632812 13.003906 12.847656 L 13.003906 13.277344 C 13.003906 13.492188 12.851562 13.667969 12.664062 13.667969 C 12.476562 13.667969 12.328125 13.492188 12.328125 13.277344 Z M 14.414062 9.121094 C 14.414062 8.90625 14.566406 8.734375 14.753906 8.734375 C 14.941406 8.734375 15.09375 8.90625 15.09375 9.121094 L 15.09375 9.554688 C 15.09375 9.769531 14.941406 9.945312 14.753906 9.945312 C 14.566406 9.945312 14.414062 9.769531 14.414062 9.554688 Z M 14.414062 10.984375 C 14.414062 10.769531 14.566406 10.59375 14.753906 10.59375 C 14.941406 10.59375 15.09375 10.769531 15.09375 10.984375 L 15.09375 11.414062 C 15.09375 11.632812 14.941406 11.804688 14.753906 11.804688 C 14.566406 11.804688 14.414062 11.632812 14.414062 11.414062 Z M 14.414062 12.847656 C 14.414062 12.632812 14.566406 12.457031 14.753906 12.457031 C 14.941406 12.457031 15.09375 12.632812 15.09375 12.847656 L 15.09375 13.277344 C 15.09375 13.492188 14.941406 13.667969 14.753906 13.667969 C 14.566406 13.667969 14.414062 13.492188 14.414062 13.277344 Z M 13.402344 16.328125 C 12.945312 15.875 12.316406 15.59375 11.621094 15.59375 C 10.925781 15.59375 10.296875 15.875 9.839844 16.328125 C 9.382812 16.785156 9.101562 17.414062 9.101562 18.109375 C 9.101562 18.800781 9.382812 19.429688 9.839844 19.886719 C 10.296875 20.339844 10.925781 20.621094 11.621094 20.621094 C 12.316406 20.621094 12.945312 20.339844 13.402344 19.886719 C 13.859375 19.429688 14.140625 18.800781 14.140625 18.109375 C 14.140625 17.414062 13.859375 16.785156 13.402344 16.328125 Z M 5.582031 29.019531 L 7.539062 29.019531 L 7.539062 25.890625 C 7.539062 25.675781 7.714844 25.5 7.929688 25.5 C 8.148438 25.5 8.320312 25.675781 8.320312 25.890625 L 8.320312 29.019531 L 14.921875 29.019531 L 14.921875 25.890625 C 14.921875 25.675781 15.09375 25.5 15.3125 25.5 C 15.527344 25.5 15.703125 25.675781 15.703125 25.890625 L 15.703125 29.019531 L 17.660156 29.019531 L 17.660156 25.082031 C 17.660156 24.234375 17.3125 23.460938 16.75 22.898438 C 16.1875 22.339844 15.414062 21.992188 14.5625 21.992188 L 8.679688 21.992188 C 7.828125 21.992188 7.054688 22.339844 6.492188 22.898438 C 5.929688 23.460938 5.582031 24.234375 5.582031 25.082031 Z M 15.339844 6.96875 C 15.238281 6.210938 14.84375 5.535156 14.261719 5.019531 C 13.570312 4.410156 12.609375 4.03125 11.542969 4.03125 C 10.492188 4.03125 9.578125 4.402344 8.925781 4.996094 C 8.363281 5.511719 7.996094 6.199219 7.902344 6.96875 Z M 12.003906 3.273438 C 12.160156 2.648438 12.507812 2.09375 12.976562 1.675781 C 13.535156 1.183594 14.269531 0.882812 15.070312 0.882812 L 17.746094 0.882812 C 19.351562 0.882812 20.8125 1.535156 21.871094 2.59375 C 22.925781 3.648438 23.585938 5.105469 23.585938 6.707031 L 23.585938 29.019531 L 24.453125 29.019531 L 24.453125 6.707031 C 24.453125 4.863281 23.699219 3.191406 22.484375 1.980469 C 21.269531 0.765625 19.589844 0.015625 17.746094 0.015625 L 15.070312 0.015625 C 14.011719 0.015625 13.042969 0.425781 12.324219 1.09375 C 11.710938 1.664062 11.273438 2.421875 11.109375 3.269531 C 11.25 3.257812 11.394531 3.253906 11.542969 3.253906 C 11.699219 3.253906 11.851562 3.261719 12.003906 3.273438 Z M 12.003906 3.273438 " fill-opacity="1" fill-rule="evenodd"/></g></svg>