<svg xmlns="http://www.w3.org/2000/svg" xmlns:xlink="http://www.w3.org/1999/xlink" width="40" zoomAndPan="magnify" viewBox="0 0 30 30.000001" height="40" preserveAspectRatio="xMidYMid meet" version="1.0"><defs><clipPath id="b8e513dec6"><path d="M 18 0 L 29.515625 0 L 29.515625 11 L 18 11 Z M 18 0 " clip-rule="nonzero"/></clipPath><clipPath id="262efe8b06"><path d="M 3 22 L 10 22 L 10 29.03125 L 3 29.03125 Z M 3 22 " clip-rule="nonzero"/></clipPath><clipPath id="85e4507682"><path d="M 20 22 L 27 22 L 27 29.03125 L 20 29.03125 Z M 20 22 " clip-rule="nonzero"/></clipPath><clipPath id="931906cf6f"><path d="M 0.484375 10 L 29.515625 10 L 29.515625 27 L 0.484375 27 Z M 0.484375 10 " clip-rule="nonzero"/></clipPath><clipPath id="e181d2e636"><path d="M 1 27 L 14 27 L 14 29.03125 L 1 29.03125 Z M 1 27 " clip-rule="nonzero"/></clipPath><clipPath id="6fbd5aeb51"><path d="M 15 27 L 17 27 L 17 29.03125 L 15 29.03125 Z M 15 27 " clip-rule="nonzero"/></clipPath><clipPath id="1705abe06b"><path d="M 17 27 L 29 27 L 29 29.03125 L 17 29.03125 Z M 17 27 " clip-rule="nonzero"/></clipPath></defs><g clip-path="url(#b8e513dec6)"><path fill="#000000" d="M 24.144531 10.753906 C 21.179688 10.753906 18.765625 8.34375 18.765625 5.378906 C 18.765625 2.414062 21.179688 0.00390625 24.144531 0.00390625 C 27.109375 0.00390625 29.519531 2.414062 29.519531 5.378906 C 29.519531 8.34375 27.109375 10.753906 24.144531 10.753906 Z M 24.144531 1.078125 C 21.773438 1.078125 19.84375 3.007812 19.84375 5.378906 C 19.84375 7.75 21.773438 9.679688 24.144531 9.679688 C 26.515625 9.679688 28.445312 7.75 28.445312 5.378906 C 28.445312 3.007812 26.515625 1.078125 24.144531 1.078125 Z M 24.144531 1.078125 " fill-opacity="1" fill-rule="nonzero"/></g><path fill="#000000" d="M 22.53125 5.917969 L 23.605469 5.917969 L 23.605469 8.066406 L 22.53125 8.066406 Z M 22.53125 5.917969 " fill-opacity="1" fill-rule="nonzero"/><path fill="#000000" d="M 24.949219 6.453125 L 22.53125 6.453125 L 22.53125 2.691406 L 24.949219 2.691406 C 25.988281 2.691406 26.832031 3.535156 26.832031 4.574219 C 26.832031 5.609375 25.988281 6.453125 24.949219 6.453125 Z M 23.605469 5.378906 L 24.949219 5.378906 C 25.394531 5.378906 25.757812 5.015625 25.757812 4.574219 C 25.757812 4.128906 25.394531 3.765625 24.949219 3.765625 L 23.605469 3.765625 Z M 23.605469 5.378906 " fill-opacity="1" fill-rule="nonzero"/><path fill="#000000" d="M 6.402344 26.886719 C 5.808594 26.886719 5.324219 26.402344 5.324219 25.8125 C 5.324219 25.21875 5.808594 24.734375 6.402344 24.734375 C 6.992188 24.734375 7.476562 25.21875 7.476562 25.8125 C 7.476562 26.402344 6.992188 26.886719 6.402344 26.886719 Z M 6.402344 25.8125 Z M 6.402344 25.8125 " fill-opacity="1" fill-rule="nonzero"/><g clip-path="url(#262efe8b06)"><path fill="#000000" d="M 6.402344 29.035156 C 4.621094 29.035156 3.175781 27.589844 3.175781 25.8125 C 3.175781 24.03125 4.621094 22.585938 6.402344 22.585938 C 8.179688 22.585938 9.625 24.03125 9.625 25.8125 C 9.625 27.589844 8.179688 29.035156 6.402344 29.035156 Z M 6.402344 23.660156 C 5.214844 23.660156 4.25 24.625 4.25 25.8125 C 4.25 26.996094 5.214844 27.960938 6.402344 27.960938 C 7.585938 27.960938 8.550781 26.996094 8.550781 25.8125 C 8.550781 24.625 7.585938 23.660156 6.402344 23.660156 Z M 6.402344 23.660156 " fill-opacity="1" fill-rule="nonzero"/></g><path fill="#000000" d="M 23.605469 26.886719 C 23.011719 26.886719 22.53125 26.402344 22.53125 25.8125 C 22.53125 25.21875 23.011719 24.734375 23.605469 24.734375 C 24.199219 24.734375 24.679688 25.21875 24.679688 25.8125 C 24.679688 26.402344 24.199219 26.886719 23.605469 26.886719 Z M 23.605469 25.8125 Z M 23.605469 25.8125 " fill-opacity="1" fill-rule="nonzero"/><g clip-path="url(#85e4507682)"><path fill="#000000" d="M 23.605469 29.035156 C 21.828125 29.035156 20.378906 27.589844 20.378906 25.8125 C 20.378906 24.03125 21.828125 22.585938 23.605469 22.585938 C 25.386719 22.585938 26.832031 24.03125 26.832031 25.8125 C 26.832031 27.589844 25.386719 29.035156 23.605469 29.035156 Z M 23.605469 23.660156 C 22.421875 23.660156 21.457031 24.625 21.457031 25.8125 C 21.457031 26.996094 22.421875 27.960938 23.605469 27.960938 C 24.792969 27.960938 25.757812 26.996094 25.757812 25.8125 C 25.757812 24.625 24.792969 23.660156 23.605469 23.660156 Z M 23.605469 23.660156 " fill-opacity="1" fill-rule="nonzero"/></g><g clip-path="url(#931906cf6f)"><path fill="#000000" d="M 27.90625 26.347656 L 26.292969 26.347656 L 26.292969 25.273438 L 27.90625 25.273438 C 28.203125 25.273438 28.445312 25.03125 28.445312 24.734375 L 28.445312 21.445312 C 28.445312 20.75 28 20.136719 27.34375 19.914062 L 22.191406 18.199219 L 19.335938 14.074219 C 18.128906 12.332031 16.144531 11.292969 14.027344 11.292969 L 9.066406 11.292969 C 6.902344 11.292969 4.898438 12.367188 3.699219 14.167969 L 2.644531 15.746094 C 1.9375 16.808594 1.5625 18.046875 1.5625 19.324219 L 1.5625 24.734375 C 1.5625 25.03125 1.804688 25.273438 2.101562 25.273438 L 3.714844 25.273438 L 3.714844 26.347656 L 2.101562 26.347656 C 1.210938 26.347656 0.488281 25.625 0.488281 24.734375 L 0.488281 19.324219 C 0.488281 17.832031 0.925781 16.390625 1.75 15.148438 L 2.804688 13.570312 C 4.203125 11.472656 6.542969 10.21875 9.066406 10.21875 L 14.027344 10.21875 C 16.5 10.21875 18.8125 11.429688 20.21875 13.460938 L 22.871094 17.289062 L 27.683594 18.894531 C 28.78125 19.261719 29.519531 20.285156 29.519531 21.445312 L 29.519531 24.734375 C 29.519531 25.625 28.796875 26.347656 27.90625 26.347656 Z M 27.90625 26.347656 " fill-opacity="1" fill-rule="nonzero"/></g><path fill="#000000" d="M 9.089844 25.273438 L 20.917969 25.273438 L 20.917969 26.347656 L 9.089844 26.347656 Z M 9.089844 25.273438 " fill-opacity="1" fill-rule="nonzero"/><g clip-path="url(#e181d2e636)"><path fill="#000000" d="M 1.5625 27.960938 L 13.929688 27.960938 L 13.929688 29.035156 L 1.5625 29.035156 Z M 1.5625 27.960938 " fill-opacity="1" fill-rule="nonzero"/></g><g clip-path="url(#6fbd5aeb51)"><path fill="#000000" d="M 15.003906 27.960938 L 16.078125 27.960938 L 16.078125 29.035156 L 15.003906 29.035156 Z M 15.003906 27.960938 " fill-opacity="1" fill-rule="nonzero"/></g><g clip-path="url(#1705abe06b)"><path fill="#000000" d="M 17.152344 27.960938 L 28.445312 27.960938 L 28.445312 29.035156 L 17.152344 29.035156 Z M 17.152344 27.960938 " fill-opacity="1" fill-rule="nonzero"/></g><path fill="#000000" d="M 1.023438 22.046875 L 3.175781 22.046875 L 3.175781 23.121094 L 1.023438 23.121094 Z M 1.023438 22.046875 " fill-opacity="1" fill-rule="nonzero"/><path fill="#000000" d="M 12.316406 19.898438 L 14.464844 19.898438 L 14.464844 20.972656 L 12.316406 20.972656 Z M 12.316406 19.898438 " fill-opacity="1" fill-rule="nonzero"/><path fill="#000000" d="M 11.238281 18.820312 L 4.25 18.820312 L 4.25 17.746094 L 10.164062 17.746094 L 10.164062 14.519531 L 11.238281 14.519531 Z M 11.238281 18.820312 " fill-opacity="1" fill-rule="nonzero"/><path fill="#000000" d="M 10.164062 12.367188 L 11.238281 12.367188 L 11.238281 13.445312 L 10.164062 13.445312 Z M 10.164062 12.367188 " fill-opacity="1" fill-rule="nonzero"/><path fill="#000000" d="M 19.84375 18.820312 L 12.316406 18.820312 L 12.316406 13.445312 L 13.390625 13.445312 L 13.390625 17.746094 L 19.84375 17.746094 Z M 19.84375 18.820312 " fill-opacity="1" fill-rule="nonzero"/><path fill="#000000" d="M 23.605469 10.21875 L 24.679688 10.21875 L 24.679688 18.285156 L 23.605469 18.285156 Z M 23.605469 10.21875 " fill-opacity="1" fill-rule="nonzero"/><path fill="#000000" d="M 26.832031 21.507812 L 28.984375 21.507812 L 28.984375 22.585938 L 26.832031 22.585938 Z M 26.832031 21.507812 " fill-opacity="1" fill-rule="nonzero"/></svg>