<svg xmlns="http://www.w3.org/2000/svg" xmlns:xlink="http://www.w3.org/1999/xlink" width="40" zoomAndPan="magnify" viewBox="0 0 30 30.000001" height="40" preserveAspectRatio="xMidYMid meet" version="1.0"><defs><clipPath id="5176c25930"><path d="M 4.695312 0 L 25.015625 0 L 25.015625 29 L 4.695312 29 Z M 4.695312 0 " clip-rule="nonzero"/></clipPath></defs><path fill="#000000" d="M 11.304688 23.925781 L 9.929688 23.925781 L 9.929688 23.113281 C 9.929688 22.859375 9.726562 22.652344 9.472656 22.652344 C 9.222656 22.652344 9.015625 22.859375 9.015625 23.113281 L 9.015625 23.925781 L 7.644531 23.925781 C 7.390625 23.925781 7.183594 24.132812 7.183594 24.386719 L 7.183594 26.363281 C 7.183594 26.621094 7.390625 26.828125 7.644531 26.828125 L 11.304688 26.828125 C 11.554688 26.828125 11.761719 26.621094 11.761719 26.363281 L 11.761719 24.386719 C 11.761719 24.132812 11.554688 23.925781 11.304688 23.925781 Z M 10.84375 25.898438 L 8.101562 25.898438 L 8.101562 24.851562 L 10.84375 24.851562 Z M 10.84375 25.898438 " fill-opacity="1" fill-rule="nonzero"/><path fill="#000000" d="M 14.855469 5.648438 C 15.609375 5.648438 16.226562 4.890625 16.226562 3.960938 C 16.226562 3.03125 15.609375 2.273438 14.855469 2.273438 C 14.097656 2.273438 13.480469 3.03125 13.480469 3.960938 C 13.480469 4.890625 14.097656 5.648438 14.855469 5.648438 Z M 14.855469 3.203125 C 15.070312 3.203125 15.3125 3.527344 15.3125 3.960938 C 15.3125 4.394531 15.070312 4.71875 14.855469 4.71875 C 14.640625 4.71875 14.398438 4.394531 14.398438 3.960938 C 14.398438 3.527344 14.640625 3.203125 14.855469 3.203125 Z M 14.855469 3.203125 " fill-opacity="1" fill-rule="nonzero"/><g clip-path="url(#5176c25930)"><path fill="#000000" d="M 18.363281 17.648438 L 18.011719 17.648438 L 18.011719 16.128906 C 19.308594 15.230469 20.234375 13.722656 20.234375 11.625 L 20.234375 9.980469 C 20.6875 9.476562 20.949219 8.902344 20.949219 8.292969 L 20.949219 6.867188 L 22.679688 4.117188 C 22.753906 4.003906 22.769531 3.863281 22.730469 3.734375 C 22.691406 3.605469 22.597656 3.496094 22.476562 3.441406 L 15.035156 0.167969 C 14.921875 0.117188 14.789062 0.117188 14.671875 0.167969 L 7.234375 3.445312 C 7.109375 3.496094 7.015625 3.605469 6.976562 3.734375 C 6.9375 3.863281 6.957031 4.003906 7.03125 4.121094 L 8.761719 6.867188 L 8.761719 8.292969 C 8.761719 8.902344 9.023438 9.472656 9.476562 9.976562 L 9.476562 11.625 C 9.476562 13.308594 10.058594 14.726562 11.167969 15.726562 C 11.332031 15.878906 11.515625 16.015625 11.699219 16.140625 L 11.699219 17.648438 L 11.347656 17.648438 C 7.867188 17.648438 4.699219 20.582031 4.699219 23.804688 L 4.699219 28.4375 C 4.699219 28.695312 4.902344 28.902344 5.15625 28.902344 L 24.554688 28.902344 C 24.804688 28.902344 25.011719 28.695312 25.011719 28.4375 L 25.011719 23.804688 C 25.011719 20.582031 21.84375 17.648438 18.363281 17.648438 Z M 18.363281 18.578125 C 18.515625 18.578125 18.667969 18.585938 18.820312 18.601562 L 17.628906 22.003906 L 15.585938 20.605469 L 17.734375 18.578125 Z M 14.230469 24.617188 L 15.457031 24.617188 L 16.421875 27.976562 L 13.265625 27.976562 Z M 15.453125 23.6875 L 14.230469 23.6875 L 13.746094 21.980469 L 14.855469 21.222656 L 15.941406 21.96875 Z M 20.03125 7.832031 L 9.679688 7.832031 L 9.679688 7.195312 L 20.03125 7.195312 Z M 9.773438 8.757812 L 19.9375 8.757812 C 19.5 9.875 17.535156 10.960938 14.855469 10.960938 C 12.175781 10.960938 10.210938 9.875 9.773438 8.757812 Z M 14.855469 1.097656 L 21.621094 4.078125 L 20.238281 6.265625 L 9.472656 6.265625 L 8.089844 4.078125 Z M 10.390625 11.625 L 10.390625 10.730469 C 11.503906 11.441406 13.09375 11.886719 14.855469 11.886719 C 16.621094 11.886719 18.207031 11.441406 19.320312 10.734375 L 19.320312 11.625 C 19.320312 14.746094 17.003906 16.167969 14.855469 16.167969 C 12.703125 16.167969 10.390625 14.746094 10.390625 11.625 Z M 14.855469 17.097656 C 15.621094 17.097656 16.386719 16.9375 17.09375 16.632812 L 17.09375 17.910156 L 14.855469 20.027344 L 12.613281 17.910156 L 12.613281 16.644531 C 13.304688 16.9375 14.0625 17.097656 14.855469 17.097656 Z M 11.976562 18.578125 L 14.121094 20.605469 L 12.082031 22.003906 L 10.890625 18.601562 C 11.042969 18.585938 11.195312 18.578125 11.347656 18.578125 Z M 5.613281 23.804688 C 5.613281 21.496094 7.5625 19.367188 9.972656 18.757812 L 11.414062 22.878906 C 11.460938 23.011719 11.570312 23.117188 11.703125 23.164062 C 11.75 23.179688 11.796875 23.1875 11.847656 23.1875 C 11.9375 23.1875 12.027344 23.160156 12.101562 23.109375 L 12.949219 22.527344 L 13.410156 24.152344 L 12.3125 27.976562 L 5.613281 27.976562 Z M 24.09375 27.976562 L 17.375 27.976562 L 16.277344 24.152344 L 16.738281 22.515625 L 17.605469 23.109375 C 17.683594 23.160156 17.773438 23.1875 17.863281 23.1875 C 17.910156 23.1875 17.960938 23.179688 18.007812 23.164062 C 18.140625 23.117188 18.246094 23.011719 18.292969 22.878906 L 19.734375 18.757812 C 22.144531 19.367188 24.09375 21.496094 24.09375 23.804688 Z M 24.09375 27.976562 " fill-opacity="1" fill-rule="nonzero"/></g></svg>