<svg xmlns="http://www.w3.org/2000/svg" xmlns:xlink="http://www.w3.org/1999/xlink" width="40" zoomAndPan="magnify" viewBox="0 0 30 30.000001" height="40" preserveAspectRatio="xMidYMid meet" version="1.0"><defs><clipPath id="108b45dda3"><path d="M 0.484375 6.460938 L 29.515625 6.460938 L 29.515625 22.425781 L 0.484375 22.425781 Z M 0.484375 6.460938 " clip-rule="nonzero"/></clipPath></defs><g clip-path="url(#108b45dda3)"><path fill="#000000" d="M 12.242188 6.464844 C 15.214844 6.464844 18.183594 6.464844 21.15625 6.460938 C 22.21875 6.460938 23.085938 6.90625 23.753906 7.695312 C 24.835938 8.976562 25.75 10.382812 26.757812 11.71875 C 27.515625 12.71875 28.253906 13.742188 29.011719 14.746094 C 29.351562 15.199219 29.519531 15.691406 29.511719 16.261719 C 29.5 17.21875 29.511719 18.175781 29.511719 19.136719 C 29.511719 19.839844 29.144531 20.207031 28.4375 20.207031 C 27.933594 20.207031 27.429688 20.210938 26.929688 20.207031 C 26.8125 20.207031 26.75 20.222656 26.703125 20.355469 C 26.265625 21.671875 25.03125 22.554688 23.648438 22.558594 C 22.257812 22.566406 21.019531 21.699219 20.570312 20.386719 C 20.515625 20.234375 20.445312 20.207031 20.304688 20.207031 C 16.851562 20.207031 13.398438 20.207031 9.945312 20.203125 C 9.796875 20.203125 9.734375 20.25 9.683594 20.390625 C 9.21875 21.710938 8 22.570312 6.625 22.558594 C 5.21875 22.550781 4.03125 21.691406 3.578125 20.351562 C 3.539062 20.230469 3.484375 20.207031 3.371094 20.207031 C 2.800781 20.210938 2.226562 20.191406 1.652344 20.210938 C 0.972656 20.238281 0.484375 19.765625 0.488281 19.066406 C 0.507812 15.785156 0.535156 12.507812 0.484375 9.230469 C 0.457031 7.679688 1.707031 6.460938 3.246094 6.464844 C 5.316406 6.464844 7.382812 6.464844 9.453125 6.464844 C 10.382812 6.464844 11.3125 6.464844 12.242188 6.464844 Z M 1.726562 15.105469 C 1.828125 14.828125 1.96875 14.726562 2.273438 14.726562 C 7.207031 14.722656 12.140625 14.722656 17.078125 14.722656 C 17.324219 14.722656 17.453125 14.824219 17.453125 15.015625 C 17.449219 15.199219 17.3125 15.308594 17.070312 15.308594 C 16.488281 15.3125 15.910156 15.3125 15.328125 15.3125 C 11.058594 15.3125 6.789062 15.3125 2.515625 15.3125 C 2.394531 15.3125 2.289062 15.304688 2.304688 15.472656 C 2.238281 15.476562 2.1875 15.445312 2.136719 15.40625 C 1.96875 15.289062 1.808594 15.347656 1.8125 15.542969 C 1.828125 16.085938 1.722656 16.632812 1.882812 17.167969 C 1.914062 17.269531 1.914062 17.371094 1.878906 17.488281 C 1.820312 17.683594 1.789062 17.902344 1.957031 18.078125 C 2.027344 18.148438 2.101562 18.21875 2.152344 18.058594 C 2.175781 17.972656 2.238281 17.9375 2.324219 17.941406 C 2.375 18.042969 2.425781 18.140625 2.476562 18.242188 C 2.410156 18.402344 2.480469 18.414062 2.605469 18.363281 C 2.847656 18.515625 3.117188 18.46875 3.382812 18.480469 C 3.511719 18.484375 3.570312 18.441406 3.621094 18.3125 C 3.957031 17.472656 4.53125 16.84375 5.367188 16.480469 C 7.042969 15.746094 8.976562 16.5625 9.648438 18.28125 C 9.699219 18.410156 9.75 18.464844 9.898438 18.464844 C 12.488281 18.457031 15.074219 18.457031 17.660156 18.460938 C 17.835938 18.460938 17.875 18.414062 17.875 18.242188 C 17.867188 17.167969 17.871094 16.089844 17.867188 15.011719 C 17.867188 12.433594 17.867188 9.855469 17.867188 7.277344 C 17.867188 7.15625 17.890625 7.058594 17.695312 7.058594 C 14.957031 7.066406 12.214844 7.066406 9.476562 7.066406 C 7.394531 7.066406 5.308594 7.074219 3.226562 7.066406 C 2.234375 7.0625 1.09375 7.839844 1.113281 9.214844 C 1.15625 12.15625 1.128906 15.097656 1.128906 18.042969 C 1.128906 18.425781 1.125 18.808594 1.125 19.195312 C 1.128906 19.472656 1.265625 19.613281 1.53125 19.613281 C 2.027344 19.617188 2.523438 19.617188 3.019531 19.613281 C 3.421875 19.613281 3.417969 19.613281 3.429688 19.199219 C 3.433594 19.082031 3.394531 19.058594 3.289062 19.058594 C 3.089844 19.058594 2.882812 19.085938 2.6875 19.027344 C 2.675781 18.96875 2.65625 18.933594 2.601562 19 C 2.101562 18.867188 1.707031 18.402344 1.695312 17.851562 C 1.675781 17.003906 1.691406 16.152344 1.695312 15.304688 C 1.804688 15.253906 1.761719 15.179688 1.726562 15.105469 Z M 18.488281 13.554688 C 18.488281 15.125 18.488281 16.699219 18.480469 18.273438 C 18.480469 18.4375 18.535156 18.460938 18.683594 18.460938 C 19.234375 18.453125 19.789062 18.453125 20.339844 18.460938 C 20.5 18.464844 20.578125 18.425781 20.636719 18.265625 C 21.199219 16.773438 22.832031 15.917969 24.375 16.300781 C 25.464844 16.570312 26.195312 17.265625 26.636719 18.277344 C 26.695312 18.410156 26.757812 18.464844 26.910156 18.464844 C 27.496094 18.453125 28.082031 18.453125 28.671875 18.464844 C 28.84375 18.46875 28.890625 18.421875 28.894531 18.246094 C 28.894531 18.0625 28.808594 18.066406 28.679688 18.066406 C 28.371094 18.074219 28.0625 18.074219 27.757812 18.066406 C 27.535156 18.0625 27.394531 17.898438 27.453125 17.71875 C 27.507812 17.5625 27.625 17.488281 27.792969 17.488281 C 28.097656 17.488281 28.40625 17.480469 28.714844 17.488281 C 28.851562 17.492188 28.894531 17.453125 28.894531 17.316406 C 28.886719 16.945312 28.882812 16.574219 28.894531 16.203125 C 28.90625 15.828125 28.789062 15.503906 28.566406 15.207031 C 28.359375 14.929688 28.144531 14.652344 27.9375 14.371094 C 26.464844 12.367188 24.996094 10.359375 23.515625 8.359375 C 22.96875 7.621094 22.269531 7.101562 21.308594 7.074219 C 20.414062 7.050781 19.519531 7.070312 18.625 7.0625 C 18.511719 7.0625 18.484375 7.101562 18.488281 7.207031 C 18.492188 7.433594 18.496094 7.65625 18.484375 7.878906 C 18.472656 8.03125 18.527344 8.058594 18.671875 8.058594 C 19.507812 8.050781 20.347656 8.066406 21.1875 8.050781 C 22.144531 8.03125 22.875 8.425781 23.4375 9.195312 C 24.609375 10.804688 25.796875 12.402344 26.976562 14.003906 C 27.414062 14.597656 27.851562 15.183594 28.285156 15.777344 C 28.410156 15.949219 28.382812 16.105469 28.234375 16.21875 C 28.09375 16.332031 27.933594 16.308594 27.792969 16.148438 C 27.761719 16.113281 27.734375 16.074219 27.703125 16.035156 C 26.082031 13.855469 24.449219 11.679688 22.855469 9.480469 C 22.453125 8.921875 21.917969 8.640625 21.230469 8.648438 C 20.382812 8.65625 19.539062 8.652344 18.691406 8.644531 C 18.527344 8.644531 18.484375 8.691406 18.484375 8.855469 C 18.492188 10.421875 18.488281 11.988281 18.488281 13.554688 Z M 25.964844 19.40625 C 25.964844 18.125 24.898438 17.074219 23.605469 17.078125 C 22.335938 17.082031 21.300781 18.109375 21.296875 19.363281 C 21.292969 20.648438 22.339844 21.6875 23.632812 21.683594 C 24.925781 21.675781 25.96875 20.660156 25.964844 19.40625 Z M 4.320312 19.390625 C 4.316406 20.648438 5.351562 21.675781 6.617188 21.679688 C 7.910156 21.683594 8.96875 20.652344 8.96875 19.386719 C 8.96875 18.121094 7.917969 17.078125 6.652344 17.082031 C 5.355469 17.085938 4.320312 18.109375 4.320312 19.390625 Z M 15.132812 19.050781 C 13.5 19.050781 11.863281 19.050781 10.230469 19.050781 C 9.855469 19.050781 9.863281 19.054688 9.851562 19.417969 C 9.847656 19.570312 9.882812 19.621094 10.046875 19.617188 C 13.386719 19.613281 16.726562 19.613281 20.066406 19.613281 C 20.386719 19.613281 20.367188 19.609375 20.410156 19.289062 C 20.441406 19.0625 20.351562 19.046875 20.164062 19.046875 C 18.488281 19.054688 16.8125 19.050781 15.132812 19.050781 Z M 27.875 19.050781 C 27.667969 19.050781 27.457031 19.050781 27.246094 19.050781 C 26.828125 19.046875 26.835938 19.046875 26.839844 19.46875 C 26.839844 19.589844 26.878906 19.621094 26.996094 19.617188 C 27.496094 19.613281 28 19.617188 28.5 19.617188 C 28.578125 19.613281 28.65625 19.601562 28.726562 19.574219 C 28.9375 19.492188 28.886719 19.300781 28.878906 19.144531 C 28.871094 18.984375 28.730469 19.058594 28.648438 19.054688 C 28.390625 19.046875 28.132812 19.050781 27.875 19.050781 Z M 27.875 19.050781 " fill-opacity="1" fill-rule="evenodd"/></g><path fill="#000000" d="M 2.304688 15.472656 C 2.308594 16.167969 2.308594 16.867188 2.3125 17.5625 C 2.316406 17.691406 2.320312 17.816406 2.324219 17.941406 C 2.238281 17.9375 2.175781 17.972656 2.152344 18.058594 C 2.101562 18.21875 2.027344 18.148438 1.957031 18.078125 C 1.789062 17.902344 1.820312 17.683594 1.878906 17.488281 C 1.914062 17.371094 1.914062 17.269531 1.882812 17.167969 C 1.722656 16.632812 1.828125 16.085938 1.8125 15.542969 C 1.808594 15.347656 1.96875 15.289062 2.136719 15.40625 C 2.1875 15.445312 2.238281 15.476562 2.304688 15.472656 Z M 2.304688 15.472656 " fill-opacity="1" fill-rule="evenodd"/><path fill="#000000" d="M 2.476562 18.242188 C 2.519531 18.28125 2.5625 18.324219 2.605469 18.363281 C 2.480469 18.414062 2.410156 18.402344 2.476562 18.242188 Z M 2.476562 18.242188 " fill-opacity="1" fill-rule="evenodd"/><path fill="#000000" d="M 1.695312 15.304688 C 1.679688 15.234375 1.699219 15.167969 1.726562 15.105469 C 1.761719 15.179688 1.804688 15.253906 1.695312 15.304688 Z M 1.695312 15.304688 " fill-opacity="1" fill-rule="evenodd"/><path fill="#000000" d="M 2.6875 19.027344 C 2.652344 19.035156 2.625 19.023438 2.601562 19 C 2.65625 18.933594 2.675781 18.96875 2.6875 19.027344 Z M 2.6875 19.027344 " fill-opacity="1" fill-rule="evenodd"/><path fill="#000000" d="M 9.582031 13.683594 C 7.144531 13.683594 4.703125 13.683594 2.265625 13.683594 C 1.851562 13.683594 1.683594 13.515625 1.683594 13.09375 C 1.683594 12.066406 1.710938 11.039062 1.679688 10.011719 C 1.644531 8.734375 2.722656 8.042969 3.652344 8.046875 C 6.71875 8.058594 9.789062 8.050781 12.855469 8.050781 C 14.085938 8.050781 15.316406 8.050781 16.546875 8.054688 C 17.195312 8.054688 17.527344 8.390625 17.527344 9.035156 C 17.527344 10.367188 17.527344 11.703125 17.523438 13.039062 C 17.523438 13.511719 17.355469 13.683594 16.878906 13.683594 C 14.449219 13.683594 12.015625 13.683594 9.582031 13.683594 Z M 5.21875 13.078125 C 5.21875 13.078125 5.21875 13.074219 5.21875 13.074219 C 6.125 13.074219 7.035156 13.070312 7.941406 13.078125 C 8.101562 13.082031 8.136719 13.035156 8.136719 12.882812 C 8.128906 11.539062 8.128906 10.199219 8.136719 8.859375 C 8.136719 8.695312 8.09375 8.648438 7.929688 8.648438 C 6.542969 8.65625 5.160156 8.652344 3.777344 8.652344 C 3.632812 8.652344 3.484375 8.65625 3.339844 8.679688 C 2.738281 8.773438 2.316406 9.269531 2.316406 9.871094 C 2.3125 10.871094 2.316406 11.871094 2.3125 12.871094 C 2.308594 13.027344 2.339844 13.082031 2.515625 13.082031 C 3.414062 13.070312 4.316406 13.078125 5.21875 13.078125 Z M 14.324219 13.074219 C 15.128906 13.074219 15.933594 13.074219 16.734375 13.074219 C 16.839844 13.078125 16.914062 13.085938 16.914062 12.933594 C 16.910156 11.605469 16.914062 10.277344 16.910156 8.949219 C 16.910156 8.730469 16.824219 8.648438 16.601562 8.648438 C 15.046875 8.648438 13.488281 8.652344 11.929688 8.648438 C 11.785156 8.644531 11.746094 8.691406 11.746094 8.835938 C 11.753906 10.191406 11.753906 11.542969 11.746094 12.898438 C 11.746094 13.054688 11.796875 13.082031 11.9375 13.078125 C 12.734375 13.074219 13.527344 13.074219 14.324219 13.074219 Z M 8.753906 10.878906 C 8.753906 11.558594 8.757812 12.234375 8.75 12.914062 C 8.75 13.035156 8.773438 13.082031 8.90625 13.082031 C 9.597656 13.074219 10.289062 13.074219 10.980469 13.078125 C 11.109375 13.082031 11.128906 13.035156 11.128906 12.921875 C 11.125 11.546875 11.125 10.167969 11.132812 8.792969 C 11.132812 8.664062 11.085938 8.648438 10.976562 8.648438 C 10.296875 8.652344 9.621094 8.65625 8.941406 8.644531 C 8.777344 8.640625 8.75 8.695312 8.75 8.847656 C 8.757812 9.523438 8.753906 10.203125 8.753906 10.878906 Z M 8.753906 10.878906 " fill-opacity="1" fill-rule="evenodd"/><path fill="#000000" d="M 21.917969 13.683594 C 21.140625 13.683594 20.367188 13.683594 19.589844 13.683594 C 19.199219 13.679688 19.042969 13.527344 19.042969 13.136719 C 19.042969 12.082031 19.046875 11.023438 19.046875 9.96875 C 19.046875 9.464844 19.253906 9.25 19.75 9.246094 C 20.273438 9.246094 20.800781 9.25 21.324219 9.242188 C 21.640625 9.234375 21.886719 9.347656 22.078125 9.605469 C 22.929688 10.75 23.785156 11.890625 24.640625 13.027344 C 24.738281 13.160156 24.789062 13.300781 24.703125 13.457031 C 24.617188 13.621094 24.46875 13.683594 24.285156 13.683594 C 23.496094 13.683594 22.707031 13.683594 21.917969 13.683594 Z M 23.886719 13.078125 C 23.078125 12.007812 22.300781 10.976562 21.527344 9.941406 C 21.472656 9.871094 21.410156 9.855469 21.328125 9.855469 C 20.832031 9.859375 20.335938 9.863281 19.839844 9.855469 C 19.714844 9.855469 19.675781 9.886719 19.675781 10.019531 C 19.679688 10.972656 19.679688 11.921875 19.675781 12.871094 C 19.671875 13.03125 19.710938 13.082031 19.882812 13.082031 C 20.964844 13.070312 22.046875 13.078125 23.128906 13.078125 C 23.367188 13.078125 23.601562 13.078125 23.886719 13.078125 Z M 23.886719 13.078125 " fill-opacity="1" fill-rule="evenodd"/><path fill="#000000" d="M 22.453125 15.3125 C 22.035156 15.3125 21.609375 15.359375 21.199219 15.300781 C 20.570312 15.210938 19.945312 15.253906 19.316406 15.234375 C 19.113281 15.226562 18.976562 15.074219 18.980469 14.878906 C 18.988281 14.683594 19.132812 14.535156 19.355469 14.53125 C 19.78125 14.519531 20.207031 14.523438 20.632812 14.523438 C 20.679688 14.523438 20.742188 14.523438 20.773438 14.550781 C 21.058594 14.820312 21.414062 14.714844 21.742188 14.71875 C 22.433594 14.730469 23.125 14.71875 23.816406 14.71875 C 24.066406 14.71875 24.199219 14.816406 24.207031 15 C 24.210938 15.1875 24.0625 15.308594 23.816406 15.308594 C 23.363281 15.3125 22.910156 15.308594 22.453125 15.308594 C 22.453125 15.308594 22.453125 15.3125 22.453125 15.3125 Z M 22.453125 15.3125 " fill-opacity="1" fill-rule="evenodd"/><path fill="#000000" d="M 23.632812 20.972656 C 22.742188 20.980469 22.023438 20.289062 22.015625 19.417969 C 22.007812 18.519531 22.714844 17.789062 23.601562 17.78125 C 24.507812 17.777344 25.242188 18.484375 25.25 19.363281 C 25.253906 20.25 24.53125 20.96875 23.632812 20.972656 Z M 24.585938 19.382812 C 24.585938 18.863281 24.144531 18.429688 23.621094 18.429688 C 23.089844 18.429688 22.65625 18.863281 22.664062 19.390625 C 22.667969 19.921875 23.089844 20.335938 23.613281 20.332031 C 24.152344 20.328125 24.585938 19.902344 24.585938 19.382812 Z M 24.585938 19.382812 " fill-opacity="1" fill-rule="evenodd"/><path fill="#000000" d="M 6.609375 20.972656 C 5.726562 20.964844 5.007812 20.257812 5.011719 19.394531 C 5.015625 18.484375 5.75 17.773438 6.667969 17.785156 C 7.539062 17.792969 8.253906 18.53125 8.246094 19.410156 C 8.238281 20.285156 7.507812 20.980469 6.609375 20.972656 Z M 7.585938 19.402344 C 7.589844 18.875 7.164062 18.4375 6.640625 18.433594 C 6.101562 18.425781 5.675781 18.835938 5.664062 19.371094 C 5.65625 19.890625 6.089844 20.324219 6.621094 20.328125 C 7.144531 20.335938 7.582031 19.914062 7.585938 19.402344 Z M 7.585938 19.402344 " fill-opacity="1" fill-rule="evenodd"/></svg>