<svg xmlns="http://www.w3.org/2000/svg" xmlns:xlink="http://www.w3.org/1999/xlink" width="40" zoomAndPan="magnify" viewBox="0 0 30 30.000001" height="40" preserveAspectRatio="xMidYMid meet" version="1.0"><defs><clipPath id="c9d769dfb6"><path d="M 0.484375 4.605469 L 29.515625 4.605469 L 29.515625 25.652344 L 0.484375 25.652344 Z M 0.484375 4.605469 " clip-rule="nonzero"/></clipPath></defs><g clip-path="url(#c9d769dfb6)"><path fill="#000000" d="M 0.980469 4.617188 C 0.710938 4.617188 0.496094 4.832031 0.496094 5.097656 L 0.496094 18.996094 C 0.496094 19.261719 0.710938 19.476562 0.980469 19.476562 L 12.25 19.476562 L 12.375 20.734375 C 10.574219 20.855469 8.832031 21.328125 7.476562 22.089844 C 7.292969 22.1875 7.226562 22.417969 7.328125 22.601562 C 7.394531 22.722656 7.523438 22.800781 7.660156 22.796875 L 18.917969 22.796875 C 19.128906 22.800781 19.300781 22.632812 19.300781 22.425781 C 19.300781 22.285156 19.226562 22.15625 19.105469 22.089844 C 17.824219 21.371094 16.195312 20.914062 14.5 20.761719 L 14.632812 19.476562 L 22.410156 19.476562 L 21.953125 18.605469 L 1.609375 18.605469 C 1.363281 18.605469 1.167969 18.40625 1.167969 18.160156 L 1.167969 5.609375 C 1.167969 5.367188 1.363281 5.167969 1.609375 5.167969 L 24.972656 5.167969 C 25.214844 5.167969 25.414062 5.367188 25.414062 5.609375 L 25.414062 15.109375 L 26.085938 16.390625 L 26.085938 5.097656 C 26.085938 4.832031 25.871094 4.617188 25.601562 4.617188 Z M 21.523438 8.976562 C 21.207031 8.988281 20.890625 9.035156 20.582031 9.125 C 20.308594 9.199219 20.042969 9.304688 19.792969 9.433594 C 19.710938 9.476562 19.625 9.523438 19.546875 9.574219 C 19.226562 9.769531 18.929688 10.007812 18.671875 10.28125 C 18.359375 10.617188 18.109375 11.007812 17.921875 11.429688 C 17.882812 11.515625 17.871094 11.597656 17.914062 11.675781 C 17.976562 11.796875 18.128906 11.84375 18.25 11.78125 C 18.296875 11.757812 18.335938 11.722656 18.359375 11.675781 C 18.359375 11.675781 18.359375 11.671875 18.359375 11.671875 C 18.523438 11.285156 18.753906 10.925781 19.039062 10.621094 C 19.488281 10.140625 20.078125 9.78125 20.714844 9.601562 C 21.253906 9.453125 21.835938 9.433594 22.394531 9.542969 C 22.457031 9.558594 22.523438 9.550781 22.578125 9.519531 C 22.699219 9.457031 22.746094 9.304688 22.683594 9.183594 C 22.640625 9.101562 22.566406 9.066406 22.476562 9.046875 C 22.164062 8.988281 21.84375 8.964844 21.523438 8.976562 Z M 21.855469 10.507812 C 21.382812 10.476562 20.898438 10.570312 20.472656 10.796875 C 19.902344 11.101562 19.46875 11.621094 19.253906 12.222656 C 19.230469 12.289062 19.234375 12.363281 19.265625 12.425781 C 19.332031 12.546875 19.484375 12.59375 19.605469 12.53125 C 19.664062 12.5 19.707031 12.449219 19.730469 12.390625 L 19.730469 12.386719 C 19.902344 11.90625 20.257812 11.480469 20.707031 11.238281 C 21.167969 10.996094 21.726562 10.941406 22.234375 11.074219 C 22.296875 11.09375 22.363281 11.085938 22.421875 11.054688 C 22.546875 10.992188 22.59375 10.839844 22.527344 10.714844 C 22.507812 10.679688 22.484375 10.652344 22.453125 10.628906 C 22.421875 10.609375 22.382812 10.597656 22.328125 10.582031 C 22.171875 10.542969 22.015625 10.519531 21.855469 10.507812 Z M 21.929688 11.910156 C 21.6875 11.914062 21.445312 11.96875 21.222656 12.078125 C 20.890625 12.238281 20.621094 12.511719 20.457031 12.839844 C 20.453125 12.839844 20.453125 12.84375 20.453125 12.84375 C 20.417969 12.917969 20.421875 12.996094 20.457031 13.066406 C 20.523438 13.191406 20.671875 13.238281 20.792969 13.171875 C 20.839844 13.148438 20.878906 13.109375 20.902344 13.0625 C 21.019531 12.832031 21.214844 12.636719 21.441406 12.527344 C 21.648438 12.425781 21.894531 12.390625 22.128906 12.421875 C 22.179688 12.429688 22.234375 12.417969 22.28125 12.394531 C 22.40625 12.332031 22.453125 12.179688 22.386719 12.058594 C 22.347656 11.976562 22.265625 11.933594 22.171875 11.925781 C 22.09375 11.914062 22.011719 11.910156 21.929688 11.910156 Z M 23.40625 12.800781 C 23.34375 12.804688 23.28125 12.824219 23.21875 12.855469 L 20.640625 14.203125 C 20.398438 14.332031 20.308594 14.625 20.433594 14.867188 L 24.25 22.113281 L 25.578125 24.632812 L 25.929688 25.308594 C 26.058594 25.550781 26.355469 25.644531 26.597656 25.515625 L 29.175781 24.167969 C 29.417969 24.042969 29.511719 23.746094 29.382812 23.503906 L 29.027344 22.828125 L 27.703125 20.308594 L 23.886719 13.0625 C 23.792969 12.882812 23.597656 12.785156 23.40625 12.800781 Z M 21.40625 14.5 C 21.554688 14.496094 21.695312 14.574219 21.761719 14.703125 C 21.859375 14.890625 21.789062 15.121094 21.601562 15.21875 C 21.414062 15.316406 21.183594 15.246094 21.085938 15.058594 C 20.988281 14.871094 21.058594 14.640625 21.246094 14.542969 C 21.296875 14.519531 21.351562 14.503906 21.40625 14.5 Z M 24.488281 15.699219 C 24.636719 15.691406 24.777344 15.773438 24.84375 15.902344 C 24.941406 16.089844 24.871094 16.320312 24.683594 16.417969 C 24.496094 16.515625 24.265625 16.445312 24.167969 16.257812 C 24.070312 16.078125 24.132812 15.859375 24.308594 15.753906 C 24.316406 15.75 24.320312 15.746094 24.328125 15.742188 C 24.378906 15.714844 24.433594 15.703125 24.488281 15.699219 Z M 22.558594 16.710938 C 22.707031 16.703125 22.84375 16.78125 22.914062 16.914062 C 23.011719 17.101562 22.9375 17.332031 22.75 17.429688 C 22.566406 17.527344 22.332031 17.453125 22.234375 17.269531 C 22.140625 17.089844 22.203125 16.867188 22.378906 16.761719 C 22.386719 16.761719 22.390625 16.757812 22.398438 16.753906 C 22.449219 16.726562 22.5 16.710938 22.558594 16.710938 Z M 24.507812 17.167969 C 24.964844 17.171875 25.386719 17.429688 25.601562 17.832031 C 25.917969 18.4375 25.683594 19.1875 25.078125 19.507812 C 24.46875 19.824219 23.71875 19.589844 23.398438 18.984375 C 23.078125 18.378906 23.3125 17.628906 23.921875 17.3125 C 24.101562 17.21875 24.304688 17.167969 24.507812 17.167969 Z M 24.464844 17.703125 C 24.363281 17.710938 24.261719 17.738281 24.171875 17.785156 C 24.164062 17.789062 24.160156 17.789062 24.15625 17.792969 C 23.820312 17.980469 23.695312 18.398438 23.875 18.734375 C 24.054688 19.082031 24.484375 19.214844 24.828125 19.035156 C 25.171875 18.851562 25.308594 18.425781 25.125 18.082031 C 25 17.839844 24.742188 17.691406 24.464844 17.703125 Z M 26.375 19.277344 C 26.523438 19.273438 26.660156 19.351562 26.726562 19.484375 C 26.828125 19.667969 26.753906 19.898438 26.566406 19.996094 C 26.382812 20.09375 26.148438 20.023438 26.050781 19.835938 C 25.953125 19.652344 26.023438 19.421875 26.210938 19.324219 C 26.261719 19.296875 26.316406 19.28125 26.375 19.277344 Z M 24.441406 20.289062 C 24.589844 20.28125 24.730469 20.363281 24.796875 20.492188 C 24.894531 20.679688 24.824219 20.910156 24.636719 21.007812 C 24.449219 21.105469 24.21875 21.035156 24.121094 20.847656 C 24.023438 20.660156 24.09375 20.429688 24.28125 20.332031 C 24.332031 20.304688 24.386719 20.292969 24.441406 20.289062 Z M 25.835938 20.59375 C 25.984375 20.589844 26.121094 20.667969 26.191406 20.796875 C 26.289062 20.984375 26.214844 21.214844 26.027344 21.3125 C 25.84375 21.410156 25.609375 21.339844 25.511719 21.152344 C 25.417969 20.972656 25.480469 20.753906 25.652344 20.648438 C 25.660156 20.644531 25.667969 20.640625 25.671875 20.636719 C 25.722656 20.613281 25.777344 20.597656 25.835938 20.59375 Z M 27.492188 20.96875 C 27.515625 20.976562 27.535156 20.992188 27.546875 21.015625 L 27.625 21.164062 C 27.648438 21.210938 27.636719 21.265625 27.589844 21.289062 L 26.835938 21.683594 C 26.792969 21.707031 26.738281 21.6875 26.714844 21.640625 L 26.636719 21.492188 C 26.613281 21.445312 26.625 21.390625 26.667969 21.367188 L 27.425781 20.972656 C 27.445312 20.960938 27.472656 20.960938 27.492188 20.96875 Z M 25.789062 21.855469 C 25.808594 21.863281 25.824219 21.878906 25.835938 21.898438 L 25.925781 22.066406 C 25.945312 22.105469 25.933594 22.15625 25.898438 22.175781 L 25.121094 22.582031 C 25.085938 22.601562 25.035156 22.582031 25.015625 22.542969 L 24.925781 22.375 C 24.90625 22.332031 24.917969 22.285156 24.957031 22.265625 L 25.730469 21.859375 C 25.75 21.847656 25.769531 21.847656 25.789062 21.855469 Z M 25.789062 21.855469 " fill-opacity="1" fill-rule="nonzero"/></g></svg>